<?xml version="1.0" encoding="utf-8"?>
<!-- Generator: Adobe Illustrator 21.0.0, SVG Export Plug-In . SVG Version: 6.00 Build 0)  -->
<svg version="1.1" id="Layer_1" xmlns="http://www.w3.org/2000/svg" xmlns:xlink="http://www.w3.org/1999/xlink" x="0px" y="0px"
	 viewBox="0 0 314.8 145.6" style="enable-background:new 0 0 314.8 145.6;" xml:space="preserve">
<style type="text/css">
	.st0{fill:#3F96FF;}
	.st1{font-family:'Geneva';}
	.st2{font-size:96px;}
	.st3{fill:#00D407;}
	.st4{fill:url(#SVGID_1_);}
	.st5{fill:url(#SVGID_2_);}
	.st6{fill:url(#SVGID_3_);}
	.st7{fill:url(#SVGID_4_);}
	.st8{fill:url(#SVGID_5_);}
	.st9{fill:url(#SVGID_6_);}
	.st10{fill:url(#SVGID_7_);}
	.st11{fill:url(#SVGID_8_);}
	.st12{fill:url(#SVGID_9_);}
	.st13{fill:url(#SVGID_10_);}
	.st14{fill:url(#SVGID_11_);}
	.st15{fill:url(#SVGID_12_);}
	.st16{fill:url(#SVGID_13_);}
	.st17{fill:url(#SVGID_14_);}
	.st18{fill:url(#SVGID_15_);}
	.st19{fill:url(#SVGID_16_);}
	.st20{fill:url(#SVGID_17_);}
	.st21{fill:url(#SVGID_18_);}
	.st22{fill:url(#SVGID_19_);}
	.st23{fill:url(#SVGID_20_);}
	.st24{fill:url(#SVGID_21_);}
	.st25{fill:url(#SVGID_22_);}
	.st26{fill:url(#SVGID_23_);}
	.st27{fill:url(#SVGID_24_);}
	.st28{fill:url(#SVGID_25_);}
	.st29{fill:url(#SVGID_26_);}
	.st30{fill:url(#SVGID_27_);}
	.st31{fill:url(#SVGID_28_);}
	.st32{fill:url(#SVGID_29_);}
	.st33{fill:url(#SVGID_30_);}
	.st34{fill:url(#SVGID_31_);}
	.st35{fill:url(#SVGID_32_);}
	.st36{fill:url(#SVGID_33_);}
	.st37{fill:url(#SVGID_34_);}
	.st38{fill:url(#SVGID_35_);}
	.st39{fill:url(#SVGID_36_);}
	.st40{fill:url(#SVGID_37_);}
	.st41{fill:url(#SVGID_38_);}
	.st42{fill:url(#SVGID_39_);}
	.st43{fill:url(#SVGID_40_);}
</style>
<title>CRISPY</title>
<text transform="matrix(1 0 0 1 2.478027e-02 84.7139)" class="st0 st1 st2">CRIS</text>
<text transform="matrix(1 0 0 1 202.1548 84.7139)" class="st3 st1 st2">py</text>
<g>
	
		<linearGradient id="SVGID_1_" gradientUnits="userSpaceOnUse" x1="-1226.4131" y1="188.2548" x2="-1013.0886" y2="188.2548" gradientTransform="matrix(-1.2406 1.252853e-02 -1.746411e-02 1.2399 -1244.9556 -105.1086)">
		<stop  offset="0" style="stop-color:#FFFFFF"/>
		<stop  offset="2.000000e-02" style="stop-color:#F9FBFD"/>
		<stop  offset="0.3" style="stop-color:#ABCCE6"/>
		<stop  offset="0.54" style="stop-color:#6DA7D3"/>
		<stop  offset="0.75" style="stop-color:#418CC6"/>
		<stop  offset="0.91" style="stop-color:#257BBE"/>
		<stop  offset="1" style="stop-color:#1B75BB"/>
	</linearGradient>
	<path class="st4" d="M128,129.1c-5.2-0.2-9.8-3.6-13.1-6.3c-4.8-4-7.1-9.1-10.3-13.7c-1.8-2.6-5.5-9.4-10.7-8.9
		c6.3-0.7,10,1.1,12.9,5c4,5.3,8.1,10.6,12.6,15.7c8.7,11.6,17.5,6.3,17.5,6.3C134.2,128.5,131.1,129.2,128,129.1z"/>
	
		<linearGradient id="SVGID_2_" gradientUnits="userSpaceOnUse" x1="-1226.4427" y1="185.4902" x2="-1013.1073" y2="185.4902" gradientTransform="matrix(-1.2406 1.252853e-02 -1.746411e-02 1.2399 -1244.9556 -105.1086)">
		<stop  offset="0" style="stop-color:#FFFFFF"/>
		<stop  offset="2.000000e-02" style="stop-color:#F9FBFD"/>
		<stop  offset="0.3" style="stop-color:#ABCCE6"/>
		<stop  offset="0.54" style="stop-color:#6DA7D3"/>
		<stop  offset="0.75" style="stop-color:#418CC6"/>
		<stop  offset="0.91" style="stop-color:#257BBE"/>
		<stop  offset="1" style="stop-color:#1B75BB"/>
	</linearGradient>
	<path class="st5" d="M80.7,126.2c-5.2-0.2-9.8-3.6-13.1-6.3c-4.8-4-7.1-9.1-10.3-13.7c-1.8-2.6-5.5-9.4-10.7-8.9
		c6.3-0.7,10,1.1,12.9,5c4,5.3,8.1,10.6,12.6,15.7c8.7,11.6,17.5,6.3,17.5,6.3C86.8,125.5,83.8,126.2,80.7,126.2z"/>
	
		<linearGradient id="SVGID_3_" gradientUnits="userSpaceOnUse" x1="-1226.4402" y1="185.6436" x2="-1013.1158" y2="185.6436" gradientTransform="matrix(-1.2406 1.252853e-02 -1.746411e-02 1.2399 -1244.9556 -105.1086)">
		<stop  offset="0" style="stop-color:#FFFFFF"/>
		<stop  offset="2.000000e-02" style="stop-color:#F9FBFD"/>
		<stop  offset="0.3" style="stop-color:#ABCCE6"/>
		<stop  offset="0.54" style="stop-color:#6DA7D3"/>
		<stop  offset="0.75" style="stop-color:#418CC6"/>
		<stop  offset="0.91" style="stop-color:#257BBE"/>
		<stop  offset="1" style="stop-color:#1B75BB"/>
	</linearGradient>
	<path class="st6" d="M61.8,126.5c-5.2-0.2-9.8-3.6-13.1-6.3c-4.8-4-7.1-9.1-10.3-13.7c-1.8-2.6-5.5-9.4-10.7-8.9
		c6.3-0.7,10,1.1,12.9,5c4,5.3,8.1,10.6,12.6,15.7c8.7,11.6,17.5,6.3,17.5,6.3C67.9,125.9,64.9,126.6,61.8,126.5z"/>
	
		<linearGradient id="SVGID_4_" gradientUnits="userSpaceOnUse" x1="-1224.2225" y1="187.2662" x2="-1014.3869" y2="187.2662" gradientTransform="matrix(-1.2406 1.252853e-02 -1.746411e-02 1.2399 -1244.9556 -105.1086)">
		<stop  offset="0" style="stop-color:#FFFFFF"/>
		<stop  offset="2.000000e-02" style="stop-color:#F9FBFD"/>
		<stop  offset="0.3" style="stop-color:#ABCCE6"/>
		<stop  offset="0.54" style="stop-color:#6DA7D3"/>
		<stop  offset="0.75" style="stop-color:#418CC6"/>
		<stop  offset="0.91" style="stop-color:#257BBE"/>
		<stop  offset="1" style="stop-color:#1B75BB"/>
	</linearGradient>
	<path class="st7" d="M145.5,127.7c-5.2-0.2-9.8-3.6-13.1-6.3c-4.8-4-7.1-9.1-10.3-13.7c-1.8-2.6-5.5-9.4-10.7-8.9
		c6.3-0.7,10,1.1,12.9,5c4,5.3,8.1,10.6,12.6,15.7c8.7,11.6,16,7,16.8,6.7C151.1,127.2,148.3,127.9,145.5,127.7z"/>
	
		<linearGradient id="SVGID_5_" gradientUnits="userSpaceOnUse" x1="-1225.6521" y1="180.5133" x2="-1013.2496" y2="180.5133" gradientTransform="matrix(-1.2406 1.252853e-02 -1.746411e-02 1.2399 -1244.9556 -105.1086)">
		<stop  offset="0" style="stop-color:#FFFFFF"/>
		<stop  offset="2.000000e-02" style="stop-color:#F9FBFD"/>
		<stop  offset="0.3" style="stop-color:#ABCCE6"/>
		<stop  offset="0.54" style="stop-color:#6DA7D3"/>
		<stop  offset="0.75" style="stop-color:#418CC6"/>
		<stop  offset="0.91" style="stop-color:#257BBE"/>
		<stop  offset="1" style="stop-color:#1B75BB"/>
	</linearGradient>
	<path class="st8" d="M46.8,112.4l-2.4-2L45,99.1c0.7-0.2,1.4-0.3,2-0.2L46.8,112.4L46.8,112.4z"/>
	
		<linearGradient id="SVGID_6_" gradientUnits="userSpaceOnUse" x1="-1225.5576" y1="184.5494" x2="-1013.2925" y2="184.5494" gradientTransform="matrix(-1.2406 1.252853e-02 -1.746411e-02 1.2399 -1244.9556 -105.1086)">
		<stop  offset="0" style="stop-color:#FFFFFF"/>
		<stop  offset="2.000000e-02" style="stop-color:#F9FBFD"/>
		<stop  offset="0.3" style="stop-color:#ABCCE6"/>
		<stop  offset="0.54" style="stop-color:#6DA7D3"/>
		<stop  offset="0.75" style="stop-color:#418CC6"/>
		<stop  offset="0.91" style="stop-color:#257BBE"/>
		<stop  offset="1" style="stop-color:#1B75BB"/>
	</linearGradient>
	<path class="st9" d="M49.9,118.3l3.4,2.7l0.3-18.5c-0.6-0.9-1.4-1.6-2.4-2.3L49.9,118.3z"/>
	
		<linearGradient id="SVGID_7_" gradientUnits="userSpaceOnUse" x1="-1225.7025" y1="190.1216" x2="-1013.2988" y2="190.1216" gradientTransform="matrix(-1.2406 1.252853e-02 -1.746411e-02 1.2399 -1244.9556 -105.1086)">
		<stop  offset="0" style="stop-color:#FFFFFF"/>
		<stop  offset="2.000000e-02" style="stop-color:#F9FBFD"/>
		<stop  offset="0.3" style="stop-color:#ABCCE6"/>
		<stop  offset="0.54" style="stop-color:#6DA7D3"/>
		<stop  offset="0.75" style="stop-color:#418CC6"/>
		<stop  offset="0.91" style="stop-color:#257BBE"/>
		<stop  offset="1" style="stop-color:#1B75BB"/>
	</linearGradient>
	<polygon class="st10" points="59.6,125.7 57.3,124.3 57.8,109.2 60,112.1 	"/>
	
		<linearGradient id="SVGID_8_" gradientUnits="userSpaceOnUse" x1="-1226.5282" y1="193.3706" x2="-1013.1007" y2="193.3706" gradientTransform="matrix(-1.2406 1.252853e-02 -1.746411e-02 1.2399 -1244.9556 -105.1086)">
		<stop  offset="0" style="stop-color:#FFFFFF"/>
		<stop  offset="2.000000e-02" style="stop-color:#F9FBFD"/>
		<stop  offset="0.3" style="stop-color:#ABCCE6"/>
		<stop  offset="0.54" style="stop-color:#6DA7D3"/>
		<stop  offset="0.75" style="stop-color:#418CC6"/>
		<stop  offset="0.91" style="stop-color:#257BBE"/>
		<stop  offset="1" style="stop-color:#1B75BB"/>
	</linearGradient>
	<path class="st11" d="M64.1,124.1c0.6,0.6,1.5,0.8,2.3,0.6l-0.2-5.1l-1.7-1.5L64.1,124.1z"/>
	
		<linearGradient id="SVGID_9_" gradientUnits="userSpaceOnUse" x1="-1225.7799" y1="182.9691" x2="-1013.4916" y2="182.9691" gradientTransform="matrix(-1.2406 1.252853e-02 -1.746411e-02 1.2399 -1244.9556 -105.1086)">
		<stop  offset="0" style="stop-color:#FFFFFF"/>
		<stop  offset="2.000000e-02" style="stop-color:#F9FBFD"/>
		<stop  offset="0.3" style="stop-color:#ABCCE6"/>
		<stop  offset="0.54" style="stop-color:#6DA7D3"/>
		<stop  offset="0.75" style="stop-color:#418CC6"/>
		<stop  offset="0.91" style="stop-color:#257BBE"/>
		<stop  offset="1" style="stop-color:#1B75BB"/>
	</linearGradient>
	<path class="st12" d="M113.3,114.8l-2.3-2l0.6-11.4c0.7-0.2,1.3-0.3,2-0.2L113.3,114.8z"/>
	
		<linearGradient id="SVGID_10_" gradientUnits="userSpaceOnUse" x1="-1225.8616" y1="188.5416" x2="-1013.4861" y2="188.5416" gradientTransform="matrix(-1.2406 1.252853e-02 -1.746411e-02 1.2399 -1244.9556 -105.1086)">
		<stop  offset="0" style="stop-color:#FFFFFF"/>
		<stop  offset="2.000000e-02" style="stop-color:#F9FBFD"/>
		<stop  offset="0.3" style="stop-color:#ABCCE6"/>
		<stop  offset="0.54" style="stop-color:#6DA7D3"/>
		<stop  offset="0.75" style="stop-color:#418CC6"/>
		<stop  offset="0.91" style="stop-color:#257BBE"/>
		<stop  offset="1" style="stop-color:#1B75BB"/>
	</linearGradient>
	<path class="st13" d="M116.5,122.6l3.4,2.7l0.3-18.5c-0.6-0.9-1.4-1.6-2.4-2.3L116.5,122.6z"/>
	
		<linearGradient id="SVGID_11_" gradientUnits="userSpaceOnUse" x1="-1226.4968" y1="193.4194" x2="-1013.0226" y2="193.4194" gradientTransform="matrix(-1.2406 1.252853e-02 -1.746411e-02 1.2399 -1244.9556 -105.1086)">
		<stop  offset="0" style="stop-color:#FFFFFF"/>
		<stop  offset="2.000000e-02" style="stop-color:#F9FBFD"/>
		<stop  offset="0.3" style="stop-color:#ABCCE6"/>
		<stop  offset="0.54" style="stop-color:#6DA7D3"/>
		<stop  offset="0.75" style="stop-color:#418CC6"/>
		<stop  offset="0.91" style="stop-color:#257BBE"/>
		<stop  offset="1" style="stop-color:#1B75BB"/>
	</linearGradient>
	<polygon class="st14" points="126,128.6 123.9,127.3 124,113.1 126.2,115.9 	"/>
	
		<linearGradient id="SVGID_12_" gradientUnits="userSpaceOnUse" x1="-1226.387" y1="196.1926" x2="-1013.1252" y2="196.1926" gradientTransform="matrix(-1.2406 1.252853e-02 -1.746411e-02 1.2399 -1244.9556 -105.1086)">
		<stop  offset="0" style="stop-color:#FFFFFF"/>
		<stop  offset="2.000000e-02" style="stop-color:#F9FBFD"/>
		<stop  offset="0.3" style="stop-color:#ABCCE6"/>
		<stop  offset="0.54" style="stop-color:#6DA7D3"/>
		<stop  offset="0.75" style="stop-color:#418CC6"/>
		<stop  offset="0.91" style="stop-color:#257BBE"/>
		<stop  offset="1" style="stop-color:#1B75BB"/>
	</linearGradient>
	<path class="st15" d="M130.5,126.8c0.6,0.6,1.4,0.7,2.2,0.4l-0.3-4.7l-1.6-1.4L130.5,126.8z"/>
	
		<linearGradient id="SVGID_13_" gradientUnits="userSpaceOnUse" x1="-1226.4297" y1="184.1629" x2="-1013.0859" y2="184.1629" gradientTransform="matrix(-1.2406 1.252853e-02 -1.746411e-02 1.2399 -1244.9556 -105.1086)">
		<stop  offset="0" style="stop-color:#FFFFFF"/>
		<stop  offset="2.000000e-02" style="stop-color:#F9FBFD"/>
		<stop  offset="0.3" style="stop-color:#ABCCE6"/>
		<stop  offset="0.54" style="stop-color:#6DA7D3"/>
		<stop  offset="0.75" style="stop-color:#418CC6"/>
		<stop  offset="0.91" style="stop-color:#257BBE"/>
		<stop  offset="1" style="stop-color:#1B75BB"/>
	</linearGradient>
	<path class="st16" d="M100.8,115c-0.6,1.3-2.2,0.1-2.2,0.1l0.2-11.4l2.4,2L100.8,115z"/>
	
		<linearGradient id="SVGID_14_" gradientUnits="userSpaceOnUse" x1="-1225.5411" y1="185.4919" x2="-1013.5168" y2="185.4919" gradientTransform="matrix(-1.2406 1.252853e-02 -1.746411e-02 1.2399 -1244.9556 -105.1086)">
		<stop  offset="0" style="stop-color:#FFFFFF"/>
		<stop  offset="2.000000e-02" style="stop-color:#F9FBFD"/>
		<stop  offset="0.3" style="stop-color:#ABCCE6"/>
		<stop  offset="0.54" style="stop-color:#6DA7D3"/>
		<stop  offset="0.75" style="stop-color:#418CC6"/>
		<stop  offset="0.91" style="stop-color:#257BBE"/>
		<stop  offset="1" style="stop-color:#1B75BB"/>
	</linearGradient>
	<path class="st17" d="M94.6,121.2c-0.9,0.5-2,0.4-2.7-0.5l0.6-19.3c2.1-0.5,2.6,0,2.6,0L94.6,121.2z"/>
	
		<linearGradient id="SVGID_15_" gradientUnits="userSpaceOnUse" x1="-1225.4359" y1="188.7675" x2="-1013.5305" y2="188.7675" gradientTransform="matrix(-1.2406 1.252853e-02 -1.746411e-02 1.2399 -1244.9556 -105.1086)">
		<stop  offset="0" style="stop-color:#FFFFFF"/>
		<stop  offset="2.000000e-02" style="stop-color:#F9FBFD"/>
		<stop  offset="0.3" style="stop-color:#ABCCE6"/>
		<stop  offset="0.54" style="stop-color:#6DA7D3"/>
		<stop  offset="0.75" style="stop-color:#418CC6"/>
		<stop  offset="0.91" style="stop-color:#257BBE"/>
		<stop  offset="1" style="stop-color:#1B75BB"/>
	</linearGradient>
	<path class="st18" d="M88.7,122.4l-0.2,1.7c-0.2,1.7-2.6,1.2-2.6,1.2l0.8-19.6c0.6-0.6,2.3-0.1,2.3-0.1L88.7,122.4z"/>
	
		<linearGradient id="SVGID_16_" gradientUnits="userSpaceOnUse" x1="-1226.3978" y1="192.1093" x2="-1013.1302" y2="192.1093" gradientTransform="matrix(-1.2406 1.252853e-02 -1.746411e-02 1.2399 -1244.9556 -105.1086)">
		<stop  offset="0" style="stop-color:#FFFFFF"/>
		<stop  offset="2.000000e-02" style="stop-color:#F9FBFD"/>
		<stop  offset="0.3" style="stop-color:#ABCCE6"/>
		<stop  offset="0.54" style="stop-color:#6DA7D3"/>
		<stop  offset="0.75" style="stop-color:#418CC6"/>
		<stop  offset="0.91" style="stop-color:#257BBE"/>
		<stop  offset="1" style="stop-color:#1B75BB"/>
	</linearGradient>
	<path class="st19" d="M82.3,125.4l-2.9-0.8l0.4-10.5c0.7-0.4,1.6-0.3,2.1,0.2L82.3,125.4z"/>
	
		<linearGradient id="SVGID_17_" gradientUnits="userSpaceOnUse" x1="-1226.5669" y1="181.3047" x2="-1013.1123" y2="181.3047" gradientTransform="matrix(-1.2406 1.252853e-02 -1.746411e-02 1.2399 -1244.9556 -105.1086)">
		<stop  offset="0" style="stop-color:#FFFFFF"/>
		<stop  offset="2.000000e-02" style="stop-color:#F9FBFD"/>
		<stop  offset="0.3" style="stop-color:#ABCCE6"/>
		<stop  offset="0.54" style="stop-color:#6DA7D3"/>
		<stop  offset="0.75" style="stop-color:#418CC6"/>
		<stop  offset="0.91" style="stop-color:#257BBE"/>
		<stop  offset="1" style="stop-color:#1B75BB"/>
	</linearGradient>
	<path class="st20" d="M34.4,112.1c-0.6,1.3-2.2,0.1-2.2,0.1l0.2-11.4l2.4,2L34.4,112.1z"/>
	
		<linearGradient id="SVGID_18_" gradientUnits="userSpaceOnUse" x1="-1225.2496" y1="182.6336" x2="-1013.2144" y2="182.6336" gradientTransform="matrix(-1.2406 1.252853e-02 -1.746411e-02 1.2399 -1244.9556 -105.1086)">
		<stop  offset="0" style="stop-color:#FFFFFF"/>
		<stop  offset="2.000000e-02" style="stop-color:#F9FBFD"/>
		<stop  offset="0.3" style="stop-color:#ABCCE6"/>
		<stop  offset="0.54" style="stop-color:#6DA7D3"/>
		<stop  offset="0.75" style="stop-color:#418CC6"/>
		<stop  offset="0.91" style="stop-color:#257BBE"/>
		<stop  offset="1" style="stop-color:#1B75BB"/>
	</linearGradient>
	<path class="st21" d="M28.2,118.3c-0.9,0.5-2,0.4-2.7-0.5l0.6-19.3c2.1-0.5,2.6,0,2.6,0L28.2,118.3z"/>
	
		<linearGradient id="SVGID_19_" gradientUnits="userSpaceOnUse" x1="-1225.1887" y1="185.9137" x2="-1013.1922" y2="185.9137" gradientTransform="matrix(-1.2406 1.252853e-02 -1.746411e-02 1.2399 -1244.9556 -105.1086)">
		<stop  offset="0" style="stop-color:#FFFFFF"/>
		<stop  offset="2.000000e-02" style="stop-color:#F9FBFD"/>
		<stop  offset="0.3" style="stop-color:#ABCCE6"/>
		<stop  offset="0.54" style="stop-color:#6DA7D3"/>
		<stop  offset="0.75" style="stop-color:#418CC6"/>
		<stop  offset="0.91" style="stop-color:#257BBE"/>
		<stop  offset="1" style="stop-color:#1B75BB"/>
	</linearGradient>
	<path class="st22" d="M22.3,119.6l-0.2,1.7c-0.2,1.7-2.6,1.2-2.6,1.2l0.9-19.6c0.7-0.6,2.3-0.1,2.3-0.1L22.3,119.6z"/>
	
		<linearGradient id="SVGID_20_" gradientUnits="userSpaceOnUse" x1="-1226.4301" y1="189.1704" x2="-1013.1402" y2="189.1704" gradientTransform="matrix(-1.2406 1.252853e-02 -1.746411e-02 1.2399 -1244.9556 -105.1086)">
		<stop  offset="0" style="stop-color:#FFFFFF"/>
		<stop  offset="2.000000e-02" style="stop-color:#F9FBFD"/>
		<stop  offset="0.3" style="stop-color:#ABCCE6"/>
		<stop  offset="0.54" style="stop-color:#6DA7D3"/>
		<stop  offset="0.75" style="stop-color:#418CC6"/>
		<stop  offset="0.91" style="stop-color:#257BBE"/>
		<stop  offset="1" style="stop-color:#1B75BB"/>
	</linearGradient>
	<path class="st23" d="M15.9,122.4l-2.9-0.8l0.4-10.5c0.7-0.4,1.6-0.3,2.1,0.2L15.9,122.4z"/>
	
		<linearGradient id="SVGID_21_" gradientUnits="userSpaceOnUse" x1="-1230.6569" y1="189.519" x2="-1017.3325" y2="189.519" gradientTransform="matrix(-1.2406 1.252853e-02 -1.746411e-02 1.2399 -1244.9556 -105.1086)">
		<stop  offset="0" style="stop-color:#FFFFFF"/>
		<stop  offset="2.000000e-02" style="stop-color:#F9FBFD"/>
		<stop  offset="0.3" style="stop-color:#ABCCE6"/>
		<stop  offset="0.54" style="stop-color:#6DA7D3"/>
		<stop  offset="0.75" style="stop-color:#418CC6"/>
		<stop  offset="0.91" style="stop-color:#257BBE"/>
		<stop  offset="1" style="stop-color:#1B75BB"/>
	</linearGradient>
	<path class="st24" d="M260.4,129.3c-5.2-0.2-9.8-3.6-13.1-6.3c-4.8-4-7.1-9.1-10.3-13.7c-1.8-2.6-5.5-9.4-10.7-8.9
		c6.3-0.7,10,1.1,12.9,5c4,5.3,8.1,10.6,12.6,15.7c8.7,11.6,17.5,6.3,17.5,6.3C266.5,128.8,263.4,129.4,260.4,129.3z"/>
	
		<linearGradient id="SVGID_22_" gradientUnits="userSpaceOnUse" x1="-1230.6755" y1="186.7547" x2="-1017.3511" y2="186.7547" gradientTransform="matrix(-1.2406 1.252853e-02 -1.746411e-02 1.2399 -1244.9556 -105.1086)">
		<stop  offset="0" style="stop-color:#FFFFFF"/>
		<stop  offset="2.000000e-02" style="stop-color:#F9FBFD"/>
		<stop  offset="0.3" style="stop-color:#ABCCE6"/>
		<stop  offset="0.54" style="stop-color:#6DA7D3"/>
		<stop  offset="0.75" style="stop-color:#418CC6"/>
		<stop  offset="0.91" style="stop-color:#257BBE"/>
		<stop  offset="1" style="stop-color:#1B75BB"/>
	</linearGradient>
	<path class="st25" d="M213,126.4c-5.2-0.2-9.8-3.6-13.1-6.3c-4.8-4-7.1-9.1-10.3-13.7c-1.8-2.6-5.5-9.4-10.7-8.9
		c6.3-0.7,10,1.1,12.9,5c4,5.3,8.1,10.6,12.6,15.7c8.7,11.6,17.5,6.3,17.5,6.3C219.1,125.8,216.1,126.5,213,126.4z"/>
	
		<linearGradient id="SVGID_23_" gradientUnits="userSpaceOnUse" x1="-1230.6841" y1="186.9076" x2="-1017.3597" y2="186.9076" gradientTransform="matrix(-1.2406 1.252853e-02 -1.746411e-02 1.2399 -1244.9556 -105.1086)">
		<stop  offset="0" style="stop-color:#FFFFFF"/>
		<stop  offset="2.000000e-02" style="stop-color:#F9FBFD"/>
		<stop  offset="0.3" style="stop-color:#ABCCE6"/>
		<stop  offset="0.54" style="stop-color:#6DA7D3"/>
		<stop  offset="0.75" style="stop-color:#418CC6"/>
		<stop  offset="0.91" style="stop-color:#257BBE"/>
		<stop  offset="1" style="stop-color:#1B75BB"/>
	</linearGradient>
	<path class="st26" d="M194.1,126.8c-5.2-0.2-9.8-3.6-13.1-6.3c-4.8-4-7.1-9.1-10.3-13.7c-1.8-2.6-5.5-9.4-10.7-8.9
		c6.3-0.7,10,1.1,12.9,5c4,5.3,8.1,10.6,12.6,15.7c8.7,11.6,17.5,6.3,17.5,6.3C200.2,126.1,197.2,126.8,194.1,126.8z"/>
	
		<linearGradient id="SVGID_24_" gradientUnits="userSpaceOnUse" x1="-1230.6483" y1="188.5201" x2="-1017.3239" y2="188.5201" gradientTransform="matrix(-1.2406 1.252853e-02 -1.746411e-02 1.2399 -1244.9556 -105.1086)">
		<stop  offset="0" style="stop-color:#FFFFFF"/>
		<stop  offset="2.000000e-02" style="stop-color:#F9FBFD"/>
		<stop  offset="0.3" style="stop-color:#ABCCE6"/>
		<stop  offset="0.54" style="stop-color:#6DA7D3"/>
		<stop  offset="0.75" style="stop-color:#418CC6"/>
		<stop  offset="0.91" style="stop-color:#257BBE"/>
		<stop  offset="1" style="stop-color:#1B75BB"/>
	</linearGradient>
	<path class="st27" d="M277.8,127.9c-5.2-0.2-9.8-3.6-13.1-6.3c-4.8-4-7.1-9.1-10.3-13.7c-1.8-2.6-5.5-9.4-10.7-8.9
		c6.3-0.7,10,1.1,12.9,5c4,5.3,8.1,10.6,12.6,15.7c8.7,11.6,17.5,6.3,17.5,6.3C283.9,127.3,280.9,128,277.8,127.9z"/>
	
		<linearGradient id="SVGID_25_" gradientUnits="userSpaceOnUse" x1="-1230.2754" y1="181.7767" x2="-1018.0091" y2="181.7767" gradientTransform="matrix(-1.2406 1.252853e-02 -1.746411e-02 1.2399 -1244.9556 -105.1086)">
		<stop  offset="0" style="stop-color:#FFFFFF"/>
		<stop  offset="2.000000e-02" style="stop-color:#F9FBFD"/>
		<stop  offset="0.3" style="stop-color:#ABCCE6"/>
		<stop  offset="0.54" style="stop-color:#6DA7D3"/>
		<stop  offset="0.75" style="stop-color:#418CC6"/>
		<stop  offset="0.91" style="stop-color:#257BBE"/>
		<stop  offset="1" style="stop-color:#1B75BB"/>
	</linearGradient>
	<path class="st28" d="M179.1,112.6l-2.4-2l0.6-11.4c0.7-0.2,1.3-0.3,2-0.2L179.1,112.6z"/>
	
		<linearGradient id="SVGID_26_" gradientUnits="userSpaceOnUse" x1="-1230.3396" y1="185.8134" x2="-1017.9641" y2="185.8134" gradientTransform="matrix(-1.2406 1.252853e-02 -1.746411e-02 1.2399 -1244.9556 -105.1086)">
		<stop  offset="0" style="stop-color:#FFFFFF"/>
		<stop  offset="2.000000e-02" style="stop-color:#F9FBFD"/>
		<stop  offset="0.3" style="stop-color:#ABCCE6"/>
		<stop  offset="0.54" style="stop-color:#6DA7D3"/>
		<stop  offset="0.75" style="stop-color:#418CC6"/>
		<stop  offset="0.91" style="stop-color:#257BBE"/>
		<stop  offset="1" style="stop-color:#1B75BB"/>
	</linearGradient>
	<path class="st29" d="M182.2,118.5l3.4,2.7l0.3-18.5c-0.6-0.9-1.4-1.6-2.4-2.3L182.2,118.5z"/>
	
		<linearGradient id="SVGID_27_" gradientUnits="userSpaceOnUse" x1="-1230.3588" y1="191.383" x2="-1018.0213" y2="191.383" gradientTransform="matrix(-1.2406 1.252853e-02 -1.746411e-02 1.2399 -1244.9556 -105.1086)">
		<stop  offset="0" style="stop-color:#FFFFFF"/>
		<stop  offset="2.000000e-02" style="stop-color:#F9FBFD"/>
		<stop  offset="0.3" style="stop-color:#ABCCE6"/>
		<stop  offset="0.54" style="stop-color:#6DA7D3"/>
		<stop  offset="0.75" style="stop-color:#418CC6"/>
		<stop  offset="0.91" style="stop-color:#257BBE"/>
		<stop  offset="1" style="stop-color:#1B75BB"/>
	</linearGradient>
	<polygon class="st30" points="191.8,125.9 189.7,124.7 190,109.4 192.3,112.3 	"/>
	
		<linearGradient id="SVGID_28_" gradientUnits="userSpaceOnUse" x1="-1230.6414" y1="194.632" x2="-1017.4467" y2="194.632" gradientTransform="matrix(-1.2406 1.252853e-02 -1.746411e-02 1.2399 -1244.9556 -105.1086)">
		<stop  offset="0" style="stop-color:#FFFFFF"/>
		<stop  offset="2.000000e-02" style="stop-color:#F9FBFD"/>
		<stop  offset="0.3" style="stop-color:#ABCCE6"/>
		<stop  offset="0.54" style="stop-color:#6DA7D3"/>
		<stop  offset="0.75" style="stop-color:#418CC6"/>
		<stop  offset="0.91" style="stop-color:#257BBE"/>
		<stop  offset="1" style="stop-color:#1B75BB"/>
	</linearGradient>
	<path class="st31" d="M196.4,124.3c0.6,0.6,1.5,0.8,2.3,0.6l-0.2-5.1l-1.7-1.5L196.4,124.3z"/>
	
		<linearGradient id="SVGID_29_" gradientUnits="userSpaceOnUse" x1="-1230.5282" y1="184.2324" x2="-1018.1698" y2="184.2324" gradientTransform="matrix(-1.2406 1.252853e-02 -1.746411e-02 1.2399 -1244.9556 -105.1086)">
		<stop  offset="0" style="stop-color:#FFFFFF"/>
		<stop  offset="2.000000e-02" style="stop-color:#F9FBFD"/>
		<stop  offset="0.3" style="stop-color:#ABCCE6"/>
		<stop  offset="0.54" style="stop-color:#6DA7D3"/>
		<stop  offset="0.75" style="stop-color:#418CC6"/>
		<stop  offset="0.91" style="stop-color:#257BBE"/>
		<stop  offset="1" style="stop-color:#1B75BB"/>
	</linearGradient>
	<path class="st32" d="M245.6,115l-2.4-2l0.6-11.4c0.7-0.2,1.4-0.3,2-0.2L245.6,115z"/>
	
		<linearGradient id="SVGID_30_" gradientUnits="userSpaceOnUse" x1="-1230.5553" y1="189.8056" x2="-1018.1798" y2="189.8056" gradientTransform="matrix(-1.2406 1.252853e-02 -1.746411e-02 1.2399 -1244.9556 -105.1086)">
		<stop  offset="0" style="stop-color:#FFFFFF"/>
		<stop  offset="2.000000e-02" style="stop-color:#F9FBFD"/>
		<stop  offset="0.3" style="stop-color:#ABCCE6"/>
		<stop  offset="0.54" style="stop-color:#6DA7D3"/>
		<stop  offset="0.75" style="stop-color:#418CC6"/>
		<stop  offset="0.91" style="stop-color:#257BBE"/>
		<stop  offset="1" style="stop-color:#1B75BB"/>
	</linearGradient>
	<path class="st33" d="M248.8,122.8l3.4,2.7l0.3-18.5c-0.6-0.9-1.4-1.6-2.4-2.3L248.8,122.8z"/>
	
		<linearGradient id="SVGID_31_" gradientUnits="userSpaceOnUse" x1="-1230.6418" y1="194.6834" x2="-1017.3552" y2="194.6834" gradientTransform="matrix(-1.2406 1.252853e-02 -1.746411e-02 1.2399 -1244.9556 -105.1086)">
		<stop  offset="0" style="stop-color:#FFFFFF"/>
		<stop  offset="2.000000e-02" style="stop-color:#F9FBFD"/>
		<stop  offset="0.3" style="stop-color:#ABCCE6"/>
		<stop  offset="0.54" style="stop-color:#6DA7D3"/>
		<stop  offset="0.75" style="stop-color:#418CC6"/>
		<stop  offset="0.91" style="stop-color:#257BBE"/>
		<stop  offset="1" style="stop-color:#1B75BB"/>
	</linearGradient>
	<polygon class="st34" points="258.3,128.8 256.1,127.6 256.3,113.4 258.5,116.1 	"/>
	
		<linearGradient id="SVGID_32_" gradientUnits="userSpaceOnUse" x1="-1230.6552" y1="197.5372" x2="-1017.3158" y2="197.5372" gradientTransform="matrix(-1.2406 1.252853e-02 -1.746411e-02 1.2399 -1244.9556 -105.1086)">
		<stop  offset="0" style="stop-color:#FFFFFF"/>
		<stop  offset="2.000000e-02" style="stop-color:#F9FBFD"/>
		<stop  offset="0.3" style="stop-color:#ABCCE6"/>
		<stop  offset="0.54" style="stop-color:#6DA7D3"/>
		<stop  offset="0.75" style="stop-color:#418CC6"/>
		<stop  offset="0.91" style="stop-color:#257BBE"/>
		<stop  offset="1" style="stop-color:#1B75BB"/>
	</linearGradient>
	<path class="st35" d="M262.8,127.1c0.6,0.6,1.4,0.7,2.2,0.4l-0.3-4.7l-1.6-1.4L262.8,127.1z"/>
	
		<linearGradient id="SVGID_33_" gradientUnits="userSpaceOnUse" x1="-1230.6753" y1="185.5076" x2="-1017.246" y2="185.5076" gradientTransform="matrix(-1.2406 1.252853e-02 -1.746411e-02 1.2399 -1244.9556 -105.1086)">
		<stop  offset="0" style="stop-color:#FFFFFF"/>
		<stop  offset="2.000000e-02" style="stop-color:#F9FBFD"/>
		<stop  offset="0.3" style="stop-color:#ABCCE6"/>
		<stop  offset="0.54" style="stop-color:#6DA7D3"/>
		<stop  offset="0.75" style="stop-color:#418CC6"/>
		<stop  offset="0.91" style="stop-color:#257BBE"/>
		<stop  offset="1" style="stop-color:#1B75BB"/>
	</linearGradient>
	<path class="st36" d="M233.2,115.3c-0.6,1.3-2.2,0.1-2.2,0.1l0.2-11.4l2.4,2L233.2,115.3z"/>
	
		<linearGradient id="SVGID_34_" gradientUnits="userSpaceOnUse" x1="-1230.4146" y1="186.7533" x2="-1018.3241" y2="186.7533" gradientTransform="matrix(-1.2406 1.252853e-02 -1.746411e-02 1.2399 -1244.9556 -105.1086)">
		<stop  offset="0" style="stop-color:#FFFFFF"/>
		<stop  offset="2.000000e-02" style="stop-color:#F9FBFD"/>
		<stop  offset="0.3" style="stop-color:#ABCCE6"/>
		<stop  offset="0.54" style="stop-color:#6DA7D3"/>
		<stop  offset="0.75" style="stop-color:#418CC6"/>
		<stop  offset="0.91" style="stop-color:#257BBE"/>
		<stop  offset="1" style="stop-color:#1B75BB"/>
	</linearGradient>
	<path class="st37" d="M226.8,121.4c-0.9,0.5-2,0.4-2.7-0.5l0.6-19.3c2.1-0.5,2.6,0,2.6,0L226.8,121.4z"/>
	
		<linearGradient id="SVGID_35_" gradientUnits="userSpaceOnUse" x1="-1230.3566" y1="190.0315" x2="-1018.4402" y2="190.0315" gradientTransform="matrix(-1.2406 1.252853e-02 -1.746411e-02 1.2399 -1244.9556 -105.1086)">
		<stop  offset="0" style="stop-color:#FFFFFF"/>
		<stop  offset="2.000000e-02" style="stop-color:#F9FBFD"/>
		<stop  offset="0.3" style="stop-color:#ABCCE6"/>
		<stop  offset="0.54" style="stop-color:#6DA7D3"/>
		<stop  offset="0.75" style="stop-color:#418CC6"/>
		<stop  offset="0.91" style="stop-color:#257BBE"/>
		<stop  offset="1" style="stop-color:#1B75BB"/>
	</linearGradient>
	<path class="st38" d="M221,122.7l-0.2,1.7c-0.2,1.7-2.6,1.2-2.6,1.2L219,106c0.6-0.6,2.3-0.1,2.3-0.1L221,122.7z"/>
	
		<linearGradient id="SVGID_36_" gradientUnits="userSpaceOnUse" x1="-1230.6631" y1="193.3707" x2="-1017.3955" y2="193.3707" gradientTransform="matrix(-1.2406 1.252853e-02 -1.746411e-02 1.2399 -1244.9556 -105.1086)">
		<stop  offset="0" style="stop-color:#FFFFFF"/>
		<stop  offset="2.000000e-02" style="stop-color:#F9FBFD"/>
		<stop  offset="0.3" style="stop-color:#ABCCE6"/>
		<stop  offset="0.54" style="stop-color:#6DA7D3"/>
		<stop  offset="0.75" style="stop-color:#418CC6"/>
		<stop  offset="0.91" style="stop-color:#257BBE"/>
		<stop  offset="1" style="stop-color:#1B75BB"/>
	</linearGradient>
	<path class="st39" d="M214.5,125.6l-2.9-0.8l0.4-10.5c0.7-0.4,1.6-0.3,2.1,0.2L214.5,125.6z"/>
	
		<linearGradient id="SVGID_37_" gradientUnits="userSpaceOnUse" x1="-1230.6801" y1="182.5687" x2="-1017.3584" y2="182.5687" gradientTransform="matrix(-1.2406 1.252853e-02 -1.746411e-02 1.2399 -1244.9556 -105.1086)">
		<stop  offset="0" style="stop-color:#FFFFFF"/>
		<stop  offset="2.000000e-02" style="stop-color:#F9FBFD"/>
		<stop  offset="0.3" style="stop-color:#ABCCE6"/>
		<stop  offset="0.54" style="stop-color:#6DA7D3"/>
		<stop  offset="0.75" style="stop-color:#418CC6"/>
		<stop  offset="0.91" style="stop-color:#257BBE"/>
		<stop  offset="1" style="stop-color:#1B75BB"/>
	</linearGradient>
	<path class="st40" d="M166.7,112.4c-0.6,1.3-2.2,0.1-2.2,0.1l0.2-11.4l2.4,2L166.7,112.4z"/>
	
		<linearGradient id="SVGID_38_" gradientUnits="userSpaceOnUse" x1="-1230.101" y1="183.8976" x2="-1018.0767" y2="183.8976" gradientTransform="matrix(-1.2406 1.252853e-02 -1.746411e-02 1.2399 -1244.9556 -105.1086)">
		<stop  offset="0" style="stop-color:#FFFFFF"/>
		<stop  offset="2.000000e-02" style="stop-color:#F9FBFD"/>
		<stop  offset="0.3" style="stop-color:#ABCCE6"/>
		<stop  offset="0.54" style="stop-color:#6DA7D3"/>
		<stop  offset="0.75" style="stop-color:#418CC6"/>
		<stop  offset="0.91" style="stop-color:#257BBE"/>
		<stop  offset="1" style="stop-color:#1B75BB"/>
	</linearGradient>
	<path class="st41" d="M160.5,118.5c-0.9,0.5-2,0.4-2.7-0.5l0.6-19.3c2.1-0.5,2.6,0,2.6,0L160.5,118.5z"/>
	
		<linearGradient id="SVGID_39_" gradientUnits="userSpaceOnUse" x1="-1229.9308" y1="188.7204" x2="-1018.2293" y2="188.7204" gradientTransform="matrix(-1.2406 1.252853e-02 -1.746411e-02 1.2399 -1244.9556 -105.1086)">
		<stop  offset="0" style="stop-color:#FFFFFF"/>
		<stop  offset="2.000000e-02" style="stop-color:#F9FBFD"/>
		<stop  offset="0.3" style="stop-color:#ABCCE6"/>
		<stop  offset="0.54" style="stop-color:#6DA7D3"/>
		<stop  offset="0.75" style="stop-color:#418CC6"/>
		<stop  offset="0.91" style="stop-color:#257BBE"/>
		<stop  offset="1" style="stop-color:#1B75BB"/>
	</linearGradient>
	<path class="st42" d="M154.6,119.8c0,0-0.1,3.4-0.3,5s-2.6,1.9-2.6,1.9l0.9-23.7c0.6-0.6,2.3-0.1,2.3-0.1L154.6,119.8z"/>
	
		<linearGradient id="SVGID_40_" gradientUnits="userSpaceOnUse" x1="-1230.693" y1="192.5709" x2="-1017.3923" y2="192.5709" gradientTransform="matrix(-1.2406 1.252853e-02 -1.746411e-02 1.2399 -1244.9556 -105.1086)">
		<stop  offset="0" style="stop-color:#FFFFFF"/>
		<stop  offset="2.000000e-02" style="stop-color:#F9FBFD"/>
		<stop  offset="0.3" style="stop-color:#ABCCE6"/>
		<stop  offset="0.54" style="stop-color:#6DA7D3"/>
		<stop  offset="0.75" style="stop-color:#418CC6"/>
		<stop  offset="0.91" style="stop-color:#257BBE"/>
		<stop  offset="1" style="stop-color:#1B75BB"/>
	</linearGradient>
	<path class="st43" d="M148.1,127.6l-2.9-0.9l0.5-14.9c0.7-0.4,1.6-0.3,2.1,0.2L148.1,127.6z"/>
</g>
</svg>
